<?xml version="1.0" encoding="iso-8859-1"?>
<!-- Uploaded to: SVG Repo, www.svgrepo.com, Generator: SVG Repo Mixer Tools -->
<svg height="800px" width="800px" version="1.1" id="Layer_1" xmlns="http://www.w3.org/2000/svg" xmlns:xlink="http://www.w3.org/1999/xlink" 
	 viewBox="0 0 512.001 512.001" xml:space="preserve">
<g>
	<path style="fill:#ffbe0b;" d="M251.614,307.232c0,0-55.915-72.64-67.53-182.63c-4.936-46.743,12.425-86.89,38.775-89.673
		c17.825-1.883,28.781-3.223,28.781-3.223L251.614,307.232z"/>
	<path style="fill:#ffbe0b;" d="M248.824,305.991c0,0-34.95,84.744-124.398,149.797c-38.012,27.646-81.462,32.685-97.047,11.256
		c-10.541-14.495-17.18-23.313-17.18-23.313L248.824,305.991z"/>
	<path style="fill:#ffbe0b;" d="M249.146,309.027c0,0,90.866-12.104,191.927,32.833c42.948,19.097,69.037,54.205,58.271,78.417
		c-7.283,16.378-11.6,26.537-11.6,26.537L249.146,309.027z"/>
</g>
<circle style="fill:#ff006e;" cx="249.865" cy="307.415" r="44.428"/>
<path d="M133.583,393.023l-54.032,31.189c-4.878,2.816-6.551,9.052-3.735,13.931c1.889,3.273,5.316,5.101,8.842,5.101
	c1.73,0,3.484-0.441,5.089-1.368l54.032-31.189c4.878-2.816,6.551-9.052,3.735-13.931
	C144.697,391.878,138.459,390.207,133.583,393.023z"/>
<path d="M55.074,438.339l-5.099,2.943c-4.878,2.816-6.549,9.053-3.734,13.931c1.889,3.272,5.316,5.101,8.842,5.101
	c1.73,0,3.484-0.441,5.089-1.368l5.099-2.943c4.878-2.816,6.549-9.053,3.734-13.931C66.189,437.195,59.952,435.525,55.074,438.339z"
	/>
<path d="M498.536,373.067c-12.035-16.196-30.972-30.589-53.321-40.526c-54.269-24.131-105.666-32.145-141.533-34.405
	c-2.237-13.082-9.052-24.767-19.463-33.19c-6.647-5.378-14.293-9.035-22.401-10.845l0.021-222.394c0-2.921-1.252-5.701-3.439-7.638
	c-2.187-1.936-5.098-2.839-7.998-2.486c-0.109,0.013-11.094,1.353-28.614,3.203c-32.442,3.426-53.459,47.74-47.846,100.886
	c6.237,59.069,25,107.592,40.976,139.783c-13.52,11.294-21.366,28.901-19.381,47.698c0.386,3.652,1.133,7.18,2.188,10.559
	L5.101,434.899c-2.529,1.46-4.312,3.935-4.895,6.796c-0.583,2.863,0.089,5.837,1.846,8.17c0.066,0.087,6.709,8.917,17.082,23.178
	c8.522,11.718,22.898,17.451,40.038,17.45c21.452-0.001,47.231-8.984,71.255-26.456c48.036-34.937,80.677-75.445,100.566-105.375
	c5.908,2.187,12.258,3.385,18.83,3.385c1.909,0,3.837-0.1,5.777-0.305c13.726-1.449,25.729-7.902,34.412-17.34l192.633,111.241
	c1.568,0.906,3.329,1.367,5.1,1.367c1.087,0,2.18-0.173,3.233-0.526c2.771-0.926,5.011-2.995,6.153-5.683
	c0.043-0.101,4.375-10.284,11.534-26.382C515.43,409.201,511.834,390.963,498.536,373.067z M194.226,123.53
	c-2.206-20.89,0.235-40.85,6.874-56.202c5.715-13.215,14.036-21.328,22.83-22.257c6.934-0.732,12.859-1.386,17.51-1.911
	l-0.02,210.288c-2.98,0.464-5.867,1.174-8.651,2.091C217.668,224.929,200.098,179.135,194.226,123.53z M118.429,447.541
	c-16.989,12.355-35.495,20.222-52.11,22.148c-14.302,1.657-25.489-1.491-30.69-8.643c-4.101-5.639-7.63-10.443-10.411-14.209
	l182.149-105.14c1.87,2.312,3.914,4.471,6.125,6.443C194.535,376.524,163.658,414.647,118.429,447.541z M253.455,341.458
	c-1.217,0.129-2.422,0.192-3.619,0.192c-17.273-0.001-32.162-13.084-34.015-30.637c-1.982-18.769,11.676-35.652,30.447-37.635
	c1.225-0.13,2.445-0.194,3.659-0.194c7.802,0,15.313,2.647,21.464,7.622c7.108,5.75,11.552,13.925,12.513,23.017
	C285.885,322.593,272.226,339.475,253.455,341.458z M490.025,416.134c-2.832,6.371-5.23,11.829-7.1,16.12L300.802,327.082
	c1.068-2.752,1.921-5.599,2.533-8.528c34.059,2.227,82.502,9.908,133.594,32.625c19.194,8.535,35.259,20.63,45.236,34.055
	C490.753,396.791,493.618,408.053,490.025,416.134z"/>
</svg>